{
  "accessors": [
    {
      "bufferView": 2,
      "componentType": 5126,
      "count": 1467,
      "max": [
        7.234099864959717,
        4.7291998863220215,
        90.01419830322266
      ],
      "min": [
        -7.299900054931641,
        -10.264100074768066,
        69.78130340576172
      ],
      "type": "VEC3"
    },
    {
      "bufferView": 2,
      "byteOffset": 17604,
      "componentType": 5126,
      "count": 1467,
      "max": [
        0.9993590116500854,
        0.9987173080444336,
        0.9998490214347839
      ],
      "min": [
        -0.9990974068641663,
        -0.9988712072372437,
        -0.9601342082023621
      ],
      "type": "VEC3"
    },
    {
      "bufferView": 1,
      "componentType": 5126,
      "count": 1467,
      "max": [
        0.9839000105857849,
        0.9948999881744385
      ],
      "min": [
        0.00430000014603138,
        0.006300000008195639
      ],
      "type": "VEC2"
    },
    {
      "bufferView": 0,
      "componentType": 5125,
      "count": 5541,
      "type": "SCALAR"
    },
    {
      "bufferView": 2,
      "byteOffset": 35208,
      "componentType": 5126,
      "count": 1076,
      "max": [
        4.293300151824951,
        3.6875,
        87.62999725341797
      ],
      "min": [
        -4.35890007019043,
        -7.276299953460693,
        76.5969009399414
      ],
      "type": "VEC3"
    },
    {
      "bufferView": 2,
      "byteOffset": 48120,
      "componentType": 5126,
      "count": 1076,
      "max": [
        0.9989137053489685,
        0.976284384727478,
        0.9978456497192383
      ],
      "min": [
        -0.9989137053489685,
        -0.9999794960021973,
        -0.9995037913322449
      ],
      "type": "VEC3"
    },
    {
      "bufferView": 1,
      "byteOffset": 11736,
      "componentType": 5126,
      "count": 1076,
      "max": [
        0.9990000128746033,
        0.9750999808311462
      ],
      "min": [
        0.000699999975040555,
        0.026900000870227814
      ],
      "type": "VEC2"
    },
    {
      "bufferView": 0,
      "byteOffset": 22164,
      "componentType": 5125,
      "count": 5496,
      "type": "SCALAR"
    },
    {
      "bufferView": 2,
      "byteOffset": 61032,
      "componentType": 5126,
      "count": 263,
      "max": [
        3.3613998889923096,
        -3.7023000717163086,
        83.32479858398438
      ],
      "min": [
        -3.427000045776367,
        -5.458099842071533,
        80.24019622802734
      ],
      "type": "VEC3"
    },
    {
      "bufferView": 2,
      "byteOffset": 64188,
      "componentType": 5126,
      "count": 263,
      "max": [
        0.9347009062767029,
        0.9123309850692749,
        0.827274739742279
      ],
      "min": [
        -0.9347009062767029,
        -0.999483048915863,
        -0.8529773354530334
      ],
      "type": "VEC3"
    },
    {
      "bufferView": 1,
      "byteOffset": 20344,
      "componentType": 5126,
      "count": 263,
      "max": [
        0.9878000020980835,
        0.979200005531311
      ],
      "min": [
        0.011900000274181366,
        0.01860000006854534
      ],
      "type": "VEC2"
    },
    {
      "bufferView": 0,
      "byteOffset": 44148,
      "componentType": 5125,
      "count": 1410,
      "type": "SCALAR"
    },
    {
      "bufferView": 2,
      "byteOffset": 67344,
      "componentType": 5126,
      "count": 2806,
      "max": [
        29.62660026550293,
        14.758000373840332,
        78.12640380859375
      ],
      "min": [
        -29.54330062866211,
        -14.758000373840332,
        -0.026599999517202377
      ],
      "type": "VEC3"
    },
    {
      "bufferView": 2,
      "byteOffset": 101016,
      "componentType": 5126,
      "count": 2806,
      "max": [
        0.999572217464447,
        0.9998448491096497,
        0.999613344669342
      ],
      "min": [
        -0.9999265670776367,
        -0.9998448491096497,
        -0.9999998807907104
      ],
      "type": "VEC3"
    },
    {
      "bufferView": 1,
      "byteOffset": 22448,
      "componentType": 5126,
      "count": 2806,
      "max": [
        0.9990000128746033,
        0.9984999895095825
      ],
      "min": [
        0.0006000000284984708,
        0.004399999976158142
      ],
      "type": "VEC2"
    },
    {
      "bufferView": 0,
      "byteOffset": 49788,
      "componentType": 5125,
      "count": 9999,
      "type": "SCALAR"
    },
    {
      "bufferView": 2,
      "byteOffset": 134688,
      "componentType": 5126,
      "count": 962,
      "max": [
        29.62660026550293,
        8.146599769592285,
        75.04640197753906
      ],
      "min": [
        -29.62660026550293,
        -14.315600395202637,
        47.420799255371094
      ],
      "type": "VEC3"
    },
    {
      "bufferView": 2,
      "byteOffset": 146232,
      "componentType": 5126,
      "count": 962,
      "max": [
        0.9992491602897644,
        0.997745156288147,
        0.9842709302902222
      ],
      "min": [
        -0.9992491602897644,
        -0.9990271925926208,
        -0.9932973980903625
      ],
      "type": "VEC3"
    },
    {
      "bufferView": 1,
      "byteOffset": 44896,
      "componentType": 5126,
      "count": 962,
      "max": [
        0.9970999956130981,
        0.9988999962806702
      ],
      "min": [
        0.004800000227987766,
        0.1436000019311905
      ],
      "type": "VEC2"
    },
    {
      "bufferView": 0,
      "byteOffset": 89784,
      "componentType": 5125,
      "count": 2958,
      "type": "SCALAR"
    },
    {
      "bufferView": 2,
      "byteOffset": 157776,
      "componentType": 5126,
      "count": 2129,
      "max": [
        35.83869934082031,
        3.8427999019622803,
        78.16400146484375
      ],
      "min": [
        -35.83869934082031,
        -9.480400085449219,
        2.3552000522613525
      ],
      "type": "VEC3"
    },
    {
      "bufferView": 2,
      "byteOffset": 183324,
      "componentType": 5126,
      "count": 2129,
      "max": [
        0.999810516834259,
        0.9997894167900085,
        0.9898492693901062
      ],
      "min": [
        -0.999923825263977,
        -0.9996722340583801,
        -0.9963759779930115
      ],
      "type": "VEC3"
    },
    {
      "bufferView": 1,
      "byteOffset": 52592,
      "componentType": 5126,
      "count": 2129,
      "max": [
        0.9916999936103821,
        0.9897000193595886
      ],
      "min": [
        0.01080000028014183,
        0.02290000021457672
      ],
      "type": "VEC2"
    },
    {
      "bufferView": 0,
      "byteOffset": 101616,
      "componentType": 5125,
      "count": 9999,
      "type": "SCALAR"
    },
    {
      "bufferView": 2,
      "byteOffset": 208872,
      "componentType": 5126,
      "count": 136,
      "max": [
        7.839799880981445,
        3.3882999420166016,
        68.69779968261719
      ],
      "min": [
        0.65420001745224,
        -9.514900207519531,
        4.8358001708984375
      ],
      "type": "VEC3"
    },
    {
      "bufferView": 2,
      "byteOffset": 210504,
      "componentType": 5126,
      "count": 136,
      "max": [
        0.9990940690040588,
        0.9932834506034851,
        0.4786003828048706
      ],
      "min": [
        -0.9977648854255676,
        -0.9877248406410217,
        -0.3743933439254761
      ],
      "type": "VEC3"
    },
    {
      "bufferView": 1,
      "byteOffset": 69624,
      "componentType": 5126,
      "count": 136,
      "max": [
        0.9423999786376953,
        0.8314999938011169
      ],
      "min": [
        0.2502000033855438,
        0.2856000065803528
      ],
      "type": "VEC2"
    },
    {
      "bufferView": 0,
      "byteOffset": 141612,
      "componentType": 5125,
      "count": 567,
      "type": "SCALAR"
    },
    {
      "bufferView": 2,
      "byteOffset": 212136,
      "componentType": 5126,
      "count": 287,
      "max": [
        3.6789000034332275,
        -4.691100120544434,
        82.26719665527344
      ],
      "min": [
        -3.7446000576019287,
        -6.267000198364258,
        80.94380187988281
      ],
      "type": "VEC3"
    },
    {
      "bufferView": 2,
      "byteOffset": 215580,
      "componentType": 5126,
      "count": 287,
      "max": [
        0.8638818860054016,
        0.5517856478691101,
        0.9977256655693054
      ],
      "min": [
        -0.8637285828590393,
        -0.9995498061180115,
        -0.9879692196846008
      ],
      "type": "VEC3"
    },
    {
      "bufferView": 1,
      "byteOffset": 70712,
      "componentType": 5126,
      "count": 287,
      "max": [
        0.9926999807357788,
        0.9951000213623047
      ],
      "min": [
        0.0020000000949949026,
        0.016100000590085983
      ],
      "type": "VEC2"
    },
    {
      "bufferView": 0,
      "byteOffset": 143880,
      "componentType": 5125,
      "count": 942,
      "type": "SCALAR"
    }
  ],
  "asset": {
    "extras": {
      "author": "Free3Diz (https://sketchfab.com/Free3Diz)",
      "license": "CC-BY-4.0 (http://creativecommons.org/licenses/by/4.0/)",
      "source": "https://sketchfab.com/3d-models/cute-anime-girl-mage-3d-model-81829e8e884f4e1fbd57135bedc6b982",
      "title": "Cute Anime Girl Mage 3D Model"
    },
    "generator": "Sketchfab-16.0.0",
    "version": "2.0"
  },
  "bufferViews": [
    {
      "buffer": 0,
      "byteLength": 147648,
      "name": "floatBufferViews",
      "target": 34963
    },
    {
      "buffer": 0,
      "byteLength": 73008,
      "byteOffset": 147648,
      "byteStride": 8,
      "name": "floatBufferViews",
      "target": 34962
    },
    {
      "buffer": 0,
      "byteLength": 219024,
      "byteOffset": 220656,
      "byteStride": 12,
      "name": "floatBufferViews",
      "target": 34962
    }
  ],
  "buffers": [
    {
      "byteLength": 439680,
      "uri": "scene.bin"
    }
  ],
  "images": [
    {
      "uri": "textures/Tex_0006_1_dds_baseColor.png"
    },
    {
      "uri": "textures/Tex_0006_1_dds_emissive.png"
    },
    {
      "uri": "textures/Tex_0008_1_dds_baseColor.png"
    },
    {
      "uri": "textures/Tex_0009_1_dds_baseColor.png"
    },
    {
      "uri": "textures/Tex_0010_1_dds_baseColor.png"
    },
    {
      "uri": "textures/Tex_0010_1_dds_emissive.png"
    },
    {
      "uri": "textures/Tex_0012_1_dds_baseColor.png"
    },
    {
      "uri": "textures/Tex_0051_0_dds_baseColor.png"
    },
    {
      "uri": "textures/Tex_0051_0_dds_emissive.png"
    }
  ],
  "materials": [
    {
      "alphaMode": "BLEND",
      "doubleSided": true,
      "emissiveTexture": {
        "index": 1
      },
      "name": "Tex_0006_1_dds",
      "pbrMetallicRoughness": {
        "baseColorTexture": {
          "index": 0
        },
        "metallicFactor": 0.0
      }
    },
    {
      "doubleSided": true,
      "emissiveTexture": {
        "index": 2
      },
      "name": "Tex_0008_1_dds",
      "pbrMetallicRoughness": {
        "baseColorTexture": {
          "index": 2
        },
        "metallicFactor": 0.0
      }
    },
    {
      "doubleSided": true,
      "emissiveTexture": {
        "index": 3
      },
      "name": "Tex_0009_1_dds",
      "pbrMetallicRoughness": {
        "baseColorTexture": {
          "index": 3
        },
        "metallicFactor": 0.0
      }
    },
    {
      "alphaMode": "BLEND",
      "doubleSided": true,
      "emissiveTexture": {
        "index": 5
      },
      "name": "Tex_0010_1_dds",
      "pbrMetallicRoughness": {
        "baseColorTexture": {
          "index": 4
        },
        "metallicFactor": 0.0
      }
    },
    {
      "doubleSided": true,
      "emissiveTexture": {
        "index": 6
      },
      "name": "Tex_0012_1_dds",
      "pbrMetallicRoughness": {
        "baseColorTexture": {
          "index": 6
        },
        "metallicFactor": 0.0
      }
    },
    {
      "alphaMode": "BLEND",
      "doubleSided": true,
      "emissiveTexture": {
        "index": 8
      },
      "name": "Tex_0051_0_dds",
      "pbrMetallicRoughness": {
        "baseColorTexture": {
          "index": 7
        },
        "metallicFactor": 0.0
      }
    }
  ],
  "meshes": [
    {
      "name": "Object_0",
      "primitives": [
        {
          "attributes": {
            "NORMAL": 1,
            "POSITION": 0,
            "TEXCOORD_0": 2
          },
          "indices": 3,
          "material": 0,
          "mode": 4
        }
      ]
    },
    {
      "name": "Object_1",
      "primitives": [
        {
          "attributes": {
            "NORMAL": 5,
            "POSITION": 4,
            "TEXCOORD_0": 6
          },
          "indices": 7,
          "material": 1,
          "mode": 4
        }
      ]
    },
    {
      "name": "Object_2",
      "primitives": [
        {
          "attributes": {
            "NORMAL": 9,
            "POSITION": 8,
            "TEXCOORD_0": 10
          },
          "indices": 11,
          "material": 2,
          "mode": 4
        }
      ]
    },
    {
      "name": "Object_3",
      "primitives": [
        {
          "attributes": {
            "NORMAL": 13,
            "POSITION": 12,
            "TEXCOORD_0": 14
          },
          "indices": 15,
          "material": 3,
          "mode": 4
        }
      ]
    },
    {
      "name": "Object_4",
      "primitives": [
        {
          "attributes": {
            "NORMAL": 17,
            "POSITION": 16,
            "TEXCOORD_0": 18
          },
          "indices": 19,
          "material": 3,
          "mode": 4
        }
      ]
    },
    {
      "name": "Object_5",
      "primitives": [
        {
          "attributes": {
            "NORMAL": 21,
            "POSITION": 20,
            "TEXCOORD_0": 22
          },
          "indices": 23,
          "material": 4,
          "mode": 4
        }
      ]
    },
    {
      "name": "Object_6",
      "primitives": [
        {
          "attributes": {
            "NORMAL": 25,
            "POSITION": 24,
            "TEXCOORD_0": 26
          },
          "indices": 27,
          "material": 4,
          "mode": 4
        }
      ]
    },
    {
      "name": "Object_7",
      "primitives": [
        {
          "attributes": {
            "NORMAL": 29,
            "POSITION": 28,
            "TEXCOORD_0": 30
          },
          "indices": 31,
          "material": 5,
          "mode": 4
        }
      ]
    }
  ],
  "nodes": [
    {
      "children": [
        1
      ],
      "matrix": [
        1.0,
        0.0,
        0.0,
        0.0,
        0.0,
        2.220446049250313e-16,
        -1.0,
        0.0,
        0.0,
        1.0,
        2.220446049250313e-16,
        0.0,
        0.0,
        0.0,
        0.0,
        1.0
      ],
      "name": "Sketchfab_model"
    },
    {
      "children": [
        2,
        3,
        4,
        5,
        6,
        7,
        8,
        9
      ],
      "name": "D0901D64.obj.cleaner.materialmerger.gles"
    },
    {
      "mesh": 0,
      "name": "Object_2"
    },
    {
      "mesh": 1,
      "name": "Object_3"
    },
    {
      "mesh": 2,
      "name": "Object_4"
    },
    {
      "mesh": 3,
      "name": "Object_5"
    },
    {
      "mesh": 4,
      "name": "Object_6"
    },
    {
      "mesh": 5,
      "name": "Object_7"
    },
    {
      "mesh": 6,
      "name": "Object_8"
    },
    {
      "mesh": 7,
      "name": "Object_9"
    }
  ],
  "samplers": [
    {
      "magFilter": 9729,
      "minFilter": 9987,
      "wrapS": 10497,
      "wrapT": 10497
    }
  ],
  "scene": 0,
  "scenes": [
    {
      "name": "Sketchfab_Scene",
      "nodes": [
        0
      ]
    }
  ],
  "textures": [
    {
      "sampler": 0,
      "source": 0
    },
    {
      "sampler": 0,
      "source": 1
    },
    {
      "sampler": 0,
      "source": 2
    },
    {
      "sampler": 0,
      "source": 3
    },
    {
      "sampler": 0,
      "source": 4
    },
    {
      "sampler": 0,
      "source": 5
    },
    {
      "sampler": 0,
      "source": 6
    },
    {
      "sampler": 0,
      "source": 7
    },
    {
      "sampler": 0,
      "source": 8
    }
  ]
}
